<?xml version="1.0" encoding="utf-8"?>
<!-- Generator: Adobe Illustrator 17.0.0, SVG Export Plug-In . SVG Version: 6.00 Build 0)  -->
<!DOCTYPE svg PUBLIC "-//W3C//DTD SVG 1.1//EN" "http://www.w3.org/Graphics/SVG/1.1/DTD/svg11.dtd">
<svg version="1.1" xmlns="http://www.w3.org/2000/svg" xmlns:xlink="http://www.w3.org/1999/xlink" x="0px" y="0px" width="1200px"
	 height="1186.561px" viewBox="0 0 1200 1186.561" enable-background="new 0 0 1200 1186.561" xml:space="preserve">
<defs>
	<filter id="Adobe_OpacityMaskFilter" filterUnits="userSpaceOnUse">
		<feColorMatrix  type="matrix" values="1 0 0 0 0  0 1 0 0 0  0 0 1 0 0  0 0 0 1 0"/>
	</filter>
</defs>
<mask maskUnits="userSpaceOnUse" id="Layer_2_1_">
	<g filter="url(#Adobe_OpacityMaskFilter)">
	</g>
</mask>
<g id="Layer_2" opacity="0" mask="url(#Layer_2_1_)">
</g>
<g id="Layer_3">
	<path fill="#FFFFFF" stroke="#FFFFFF" stroke-miterlimit="10" d="M500.238,542.414c-13.628,10.969-31.899,14.774-58.499,21.439
		c-39.561,9.911-52.848,11.799-67.806,13.461c-12.536,1.393-69.773,15.913-75.699,19.204c-11.209,6.225-18.032-4.247-28.003,45.61
		c-12.787,63.935-19.103,146.017-28.917,221.365c-12.366,94.941-28.356,154.277-33.57,249.285c-5.035,91.737,1.33,79.771,0,79.771
		c-1.33,0,123.645,0.818,123.645,0.818s14.625-156.372,30.579-160.361c15.954-3.989,10.636,88.056,2.659,160.361
		c34.235-0.818,511.866,0,511.866,0s-13.96-154.378,1.994-154.378c15.954,0,25.926,88.413,27.255,153.56
		c34.568,0.997,131.623,0,131.623,0s-6.162-157.734-18.613-227.348c-14.625-81.766-14.625-125.64-19.943-180.815
		c-4.762-49.41-5.219-75.475-21.272-142.259c-7.826-32.559-3.83-32.123-38.556-41.215c-48.244-12.631-59.828-18.613-90.407-23.931
		c-30.579-5.318-63.817-23.931-74.453-29.25c-10.636-5.318-33.903-26.59-35.232-49.192c-5.318-19.278-16.951-10.969-24.596-13.295
		c0,9.307,1.994,30.579,16.619,42.545c-5.983,10.636-24.596,19.943-28.585,23.931s29.02,88.622,38.327,101.917
		s-26.361,300.928-113.445,399.977c-53.181-63.817-122.03-392.247-107.406-405.21c14.625-12.963,44.253-59.458,34.947-96.685
		c-13.295-11.301-6.356-8.526-18.613-19.943c1.572-9.965,1.466,0.032,11.799-15.788c6.138-9.397,4.638-25.964,3.807-31.448
		c-9.307,2.659-29.899,19.815-35.217,26.462c-1.657,7.876,3.656,20.774-1.662,20.774
		C510.542,536.93,500.238,542.414,500.238,542.414z"/>
	<path fill="#FFFFFF" d="M383.905,227.982c0,0-21.937-21.272-25.926-38.556c0.997-5.318,11.066-3.661,12.963-2.659
		c1.662,1.994,35.565,8.642,56.172,11.966c52.184-24.264,71.794-27.92,85.089-31.909c3.324-5.983,3.324-12.335,11.301-17.284
		c10.969-14.957,8.044-66.663,16.619-111.68c3.989-20.94,17.307-19.085,29.249-19.943c33.903-2.435,102.373-8.974,174.832,17.284
		c21.995,7.971,20.608,22.602,20.608,25.926c0,3.324-8.619,102.132,3.324,107.026c20.275,8.31,83.095,85.422,108.356,109.686
		c19.943,0.665,33.238,9.971,31.909,13.96s-94.119-3.063-110.683-3.989C770.433,286.286,401.521,235.295,383.905,227.982z"/>
	<path fill="#EAE8E8" d="M429.263,197.737c0,0,193.364,51.767,245.216,57.085c-36.753-13.821-146.912-40.55-158.878-42.545
		c-11.966-1.994-68.191-19.749-76.691-18.931C435.5,196.75,429.263,197.737,429.263,197.737z"/>
	<path fill="#EFEAEA" d="M349,1062.922c0,0-31.909-110.683-16.951-195.44c0,0-0.999-45.869,6.481-85.754S367.5,1006.5,359,1035
		C350.695,1062.845,360.966,1033.008,349,1062.922z"/>
	<path fill="#EFEAEA" d="M875.5,1040.556c0,0,21.3-230.908,41.243-236.891c20.94,18.946,7.977,34.9,8.974,75.783
		c0.997,40.883-28.136,168.825-33.903,177.491C887.5,1058.294,885.01,1029.434,875.5,1040.556z"/>
</g>
</svg>
